PathFileType	4	(X/Y/Z)	C:\Users\86182\Documents\cortex\Trimmed_M1_H5.trc
DataRate	CameraRate	NumFrames	NumMarkers	Units	OrigDataRate	OrigDataStartFrame	OrigNumFrames
100.00	100.00	       113	2	mm	100.00	181	       901
Frame#	Time	gripper			box			
		X1	Y1	Z1	X2	Y2	Z2	

181	1.800	220.81522	202.93170	223.37805	224.42358	202.69400	78.50613	
182	1.810	220.76111	202.95137	223.83716	224.44348	202.70955	78.94199	
183	1.820	220.71692	202.96695	224.29158	224.45477	202.72453	79.37835	
184	1.830	220.67638	202.97632	224.74306	224.45442	202.73880	79.81274	
185	1.840	220.63196	202.97882	225.19141	224.44551	202.75204	80.24161	
186	1.850	220.58446	202.97450	225.63377	224.43359	202.76256	80.66490	
187	1.860	220.53943	202.96329	226.06720	224.42337	202.76868	81.08443	
188	1.870	220.49757	202.94588	226.49193	224.41780	202.77060	81.49847	
189	1.880	220.45393	202.92456	226.91263	224.41742	202.76974	81.90316	
190	1.890	220.40593	202.90250	227.33539	224.42018	202.76726	82.29872	
191	1.900	220.35869	202.88232	227.76262	224.42505	202.76453	82.69081	
192	1.910	220.32095	202.86522	228.19290	224.43452	202.76395	83.08704	
193	1.920	220.29700	202.85156	228.62604	224.45128	202.76791	83.49385	
194	1.930	220.28323	202.84268	229.06552	224.47438	202.77730	83.91481	
195	1.940	220.27225	202.84079	229.51501	224.50146	202.79167	84.34976	
196	1.950	220.25996	202.84671	229.97473	224.53163	202.81064	84.79605	
197	1.960	220.25003	202.85924	230.44189	224.56387	202.83345	85.25136	
198	1.970	220.25046	202.87653	230.91293	224.59637	202.85852	85.71495	
199	1.980	220.26450	202.89731	231.38518	224.62831	202.88426	86.18499	
200	1.990	220.28629	202.92058	231.85742	224.65944	202.90965	86.65560	
201	2.000	220.30717	202.94472	232.32806	224.68834	202.93362	87.11945	
202	2.010	220.32310	202.96704	232.79382	224.71294	202.95467	87.57318	
203	2.020	220.33260	202.98376	233.25305	224.73325	202.97194	88.01749	
204	2.030	220.33139	202.99182	233.70755	224.75174	202.98578	88.45250	
205	2.040	220.31236	202.99030	234.15904	224.76965	202.99687	88.87709	
206	2.050	220.27135	202.98029	234.60596	224.78520	203.00529	89.29163	
207	2.060	220.21275	202.96402	235.04555	224.79572	203.01123	89.69870	
208	2.070	220.14789	202.94434	235.47714	224.79897	203.01518	90.10171	
209	2.080	220.08730	202.92371	235.90291	224.79405	203.01704	90.50468	
210	2.090	220.03607	202.90327	236.32716	224.78319	203.01552	90.91280	
211	2.100	219.99521	202.88326	236.75458	224.77199	203.00909	91.33009	
212	2.110	219.96446	202.86443	237.18716	224.76582	202.99725	91.75726	
213	2.120	219.94347	202.84804	237.62437	224.76505	202.98065	92.19345	
214	2.130	219.93315	202.83496	238.06549	224.76483	202.96074	92.63905	
215	2.140	219.93745	202.82607	238.50974	224.76117	202.93991	93.09483	
216	2.150	219.95956	202.82204	238.95456	224.75412	202.92084	93.55927	
217	2.160	219.99495	202.82225	239.39719	224.74455	202.90498	94.02768	
218	2.170	220.03384	202.82523	239.83731	224.73039	202.89229	94.49519	
219	2.180	220.07011	202.83002	240.27689	224.70663	202.88268	94.96014	
220	2.190	220.10313	202.83553	240.71756	224.66768	202.87631	95.42390	
221	2.200	220.13293	202.84016	241.15845	224.60907	202.87227	95.88879	
222	2.210	220.15630	202.84328	241.59665	224.52850	202.86781	96.35654	
223	2.220	220.16734	202.84578	242.02942	224.42828	202.86017	96.82564	
224	2.230	220.16318	202.84874	242.45639	224.31612	202.84845	97.29120	
225	2.240	220.14856	202.85219	242.87921	224.20145	202.83348	97.74899	
226	2.250	220.13367	202.85516	243.29913	224.09055	202.81577	98.19980	
227	2.260	220.12553	202.85667	243.71570	223.98511	202.79483	98.64861	
228	2.270	220.12181	202.85706	244.12891	223.88307	202.77025	99.09993	
229	2.280	220.11505	202.85808	244.54129	223.78070	202.74297	99.55515	
230	2.290	220.10315	202.86101	244.95609	223.67690	202.71577	100.01357	
231	2.300	220.09360	202.86543	245.37415	223.57570	202.69240	100.47433	
232	2.310	220.09653	202.87010	245.79463	223.48405	202.67587	100.93661	
233	2.320	220.11353	202.87445	246.21835	223.40868	202.66736	101.39900	
234	2.330	220.13435	202.87910	246.64835	223.35321	202.66663	101.85988	
235	2.340	220.14819	202.88545	247.08713	223.31700	202.67245	102.31798	
236	2.350	220.15512	202.89424	247.53426	223.29645	202.68297	102.77246	
237	2.360	220.16287	202.90479	247.98640	223.28592	202.69666	103.22383	
238	2.370	220.17613	202.91605	248.43913	223.27766	202.71367	103.67479	
239	2.380	220.19218	202.92770	248.88916	223.26488	202.73415	104.12865	
240	2.390	220.20401	202.93999	249.33627	223.24672	202.75607	104.58547	
241	2.400	220.20737	202.95291	249.78159	223.22867	202.77647	105.04111	
242	2.410	220.20634	202.96597	250.22458	223.21446	202.79431	105.49255	
243	2.420	220.20958	202.97830	250.66315	223.19728	202.81082	105.94275	
244	2.430	220.22081	202.98921	251.09584	223.16376	202.82738	106.39679	
245	2.440	220.23521	202.99887	251.52333	223.10860	202.84413	106.85452	
246	2.450	220.24481	203.00783	251.94786	223.03984	202.86024	107.31064	
247	2.460	220.24564	203.01610	252.37155	222.97026	202.87479	107.76062	
248	2.470	220.23798	203.02341	252.79526	222.91060	202.88719	108.20284	
249	2.480	220.22137	203.02989	253.21965	222.86934	202.89772	108.63667	
250	2.490	220.19377	203.03595	253.64635	222.84956	202.90765	109.06346	
251	2.500	220.15683	203.04187	254.07669	222.84346	202.91815	109.48792	
252	2.510	220.11809	203.04793	254.51041	222.83636	202.92979	109.91505	
253	2.520	220.08473	203.05476	254.94728	222.81929	202.94348	110.34705	
254	2.530	220.05696	203.06354	255.38905	222.79387	202.96014	110.78542	
255	2.540	220.02989	203.07582	255.83794	222.76387	202.97935	111.23396	
256	2.550	220.00040	203.09264	256.29385	222.72865	202.99954	111.69525	
257	2.560	219.96974	203.11346	256.75446	222.68863	203.01942	112.16574	
258	2.570	219.93976	203.13629	257.21729	222.65019	203.03824	112.63800	
259	2.580	219.90942	203.15886	257.68057	222.62091	203.05486	113.10647	
260	2.590	219.87547	203.17934	258.14337	222.60390	203.06827	113.56824	
261	2.600	219.83479	203.19685	258.60538	222.59746	203.07864	114.02162	
262	2.610	219.78593	203.21193	259.06573	222.59613	203.08691	114.46661	
263	2.620	219.72983	203.22606	259.52261	222.59296	203.09354	114.90392	
264	2.630	219.67020	203.24040	259.97385	222.58493	203.09816	115.33267	
265	2.640	219.61360	203.25484	260.41663	222.57588	203.10048	115.75194	
266	2.650	219.56813	203.26820	260.84833	222.57201	203.10092	116.16423	
267	2.660	219.53801	203.27916	261.26996	222.57541	203.10097	116.57443	
268	2.670	219.51886	203.28650	261.68689	222.58192	203.10237	116.98538	
269	2.680	219.50217	203.28940	262.10489	222.58440	203.10568	117.39731	
270	2.690	219.48415	203.28755	262.52567	222.58037	203.10997	117.81026	
271	2.700	219.46739	203.28075	262.94867	222.57755	203.11389	118.22389	
272	2.710	219.45349	203.26884	263.37476	222.58667	203.11679	118.63741	
273	2.720	219.43883	203.25320	263.80585	222.60889	203.11824	119.05238	
274	2.730	219.42020	203.23695	264.24323	222.63609	203.11798	119.47237	
275	2.740	219.39998	203.22264	264.68652	222.66266	203.11685	119.89775	
276	2.750	219.38258	203.21048	265.13440	222.69025	203.11658	120.32513	
277	2.760	219.36836	203.19954	265.58603	222.72246	203.11761	120.75278	
278	2.770	219.35342	203.18959	266.04221	222.75888	203.11909	121.18330	
279	2.780	219.33371	203.18050	266.50363	222.79456	203.12102	121.61993	
280	2.790	219.30875	203.17134	266.96771	222.82336	203.12436	122.06229	
281	2.800	219.28172	203.16122	267.42981	222.84280	203.12943	122.50716	
282	2.810	219.25525	203.15030	267.88760	222.85789	203.13568	122.95071	
283	2.820	219.22900	203.13998	268.34122	222.87740	203.14316	123.38982	
284	2.830	219.20233	203.13206	268.79071	222.90370	203.15236	123.82352	
285	2.840	219.17902	203.12807	269.23535	222.93019	203.16356	124.25272	
286	2.850	219.16759	203.12856	269.67328	222.94957	203.17653	124.67737	
287	2.860	219.17314	203.13283	270.10330	222.96165	203.19077	125.09586	
288	2.870	219.18892	203.13919	270.52856	222.97104	203.20540	125.50850	
289	2.880	219.19998	203.14575	270.95529	222.97992	203.21951	125.92036	
290	2.890	219.19537	203.15071	271.38638	222.98630	203.23265	126.33727	
291	2.900	219.17590	203.15205	271.81989	222.98889	203.24446	126.75932	
292	2.910	219.15155	203.14882	272.25363	222.98969	203.25363	127.18211	
293	2.920	219.13116	203.14252	272.68790	222.98941	203.25800	127.60448	
